<svg width="54" height="37" viewBox="0 0 54 37" fill="none" xmlns="http://www.w3.org/2000/svg">
<path d="M31.4752 21.7923L20.619 34.1993C18.627 36.4761 15.0853 36.4761 13.0933 34.1993L2.23711 21.7923C0.587631 19.9073 0.587631 17.0923 2.23711 15.2073L13.0933 2.80026C15.0853 0.523614 18.627 0.523614 20.619 2.80024L31.4752 15.2073C33.1247 17.0923 33.1247 19.9073 31.4752 21.7923Z" stroke="black" stroke-width="3" stroke-linecap="round" stroke-linejoin="round"/>
<path d="M29.356 36L41.567 21.754C43.1717 19.8815 43.1717 17.1185 41.567 15.246L29.356 1" stroke="black" stroke-width="3" stroke-linecap="round" stroke-linejoin="round"/>
<path d="M39.356 36L51.567 21.754C53.1717 19.8815 53.1717 17.1185 51.567 15.246L39.356 1" stroke="black" stroke-width="3" stroke-linecap="round" stroke-linejoin="round"/>
</svg>
